<svg xmlns="http://www.w3.org/2000/svg" width="256" height="256" fill="none" viewBox="0 0 256 256">
  <rect width="256" height="256" fill="#242938" rx="60" />
  <g transform="translate(26.6 60.4) scale(2.8)">
    <defs>
      <mask id="chroma_mask" x="0" y="0" width="72.45" height="48.3" maskUnits="userSpaceOnUse">
        <path d="M72.45,0H0v48.3h72.45V0Z" fill="#fff" />
      </mask>
    </defs>
    <g mask="url(#chroma_mask)">
      <path
        d="M24.15,0C10.81,0,0,10.81,0,24.15s10.81,24.15,24.15,24.15,24.15-10.81,24.15-24.15S37.49,0,24.15,0"
        fill="#327EFF"
      />
      <path
        d="M48.3,0c-13.34,0-24.15,10.81-24.15,24.15s10.81,24.15,24.15,24.15,24.15-10.81,24.15-24.15S61.64,0,48.3,0"
        fill="#FFDE2D"
      />
      <path
        d="M24.15,24.15C24.15,10.81,34.96,0,48.3,0v24.15h-24.15ZM48.3,24.15c0,13.34-10.81,24.15-24.15,24.15v-24.15h24.15Z"
        fill="#FF6446"
      />
    </g>
  </g>
</svg>
