<svg xmlns="http://www.w3.org/2000/svg" width="256" height="256" fill="none" viewBox="0 0 256 256">
  <rect width="256" height="256" fill="#242938" rx="60" />

  <g stroke="#3B2FDB" stroke-width="12" stroke-linecap="round" stroke-linejoin="round" fill="none">
    <circle cx="128" cy="128" r="70" />
    <line x1="68" y1="128" x2="188" y2="128" stroke-width="26" />

    <line x1="44" y1="92" x2="68" y2="92" />
    <line x1="44" y1="128" x2="68" y2="128" />
    <line x1="44" y1="164" x2="68" y2="164" />
    <circle cx="30" cy="92" r="14" />
    <circle cx="30" cy="128" r="14" />
    <circle cx="30" cy="164" r="14" />

    <line x1="188" y1="92" x2="212" y2="92" />
    <line x1="188" y1="128" x2="212" y2="128" />
    <line x1="188" y1="164" x2="212" y2="164" />
    <circle cx="226" cy="92" r="14" />
    <circle cx="226" cy="128" r="14" />
    <circle cx="226" cy="164" r="14" />

    <line x1="92" y1="44" x2="92" y2="68" />
    <line x1="128" y1="44" x2="128" y2="68" />
    <line x1="164" y1="44" x2="164" y2="68" />
    <circle cx="92" cy="30" r="14" />
    <circle cx="128" cy="30" r="14" />
    <circle cx="164" cy="30" r="14" />

    <line x1="92" y1="188" x2="92" y2="212" />
    <line x1="128" y1="188" x2="128" y2="212" />
    <line x1="164" y1="188" x2="164" y2="212" />
    <circle cx="92" cy="226" r="14" />
    <circle cx="128" cy="226" r="14" />
    <circle cx="164" cy="226" r="14" />
  </g>

  <text
    x="128"
    y="130"
    fill="#FFFFFF"
    font-family="ui-monospace, SFMono-Regular, Menlo, Monaco, Consolas, Liberation Mono, monospace"
    font-size="64"
    font-weight="900"
    text-anchor="middle"
    dominant-baseline="central"
    letter-spacing="2"
  >
    RAG
  </text>
</svg>
